<svg version="1.1" xmlns="http://www.w3.org/2000/svg" xmlns:xlink="http://www.w3.org/1999/xlink" width="304" height="351" viewBox="0,0,221.71666,256"><g transform="translate(12.63343,14.58689) scale(0.88604,0.88604)"><g fill="#ffffff" fill-rule="nonzero" stroke="none" stroke-width="1" stroke-linecap="butt" stroke-linejoin="miter" stroke-miterlimit="10" stroke-dasharray="" stroke-dashoffset="0" font-family="none" font-weight="none" font-size="none" text-anchor="none" style="mix-blend-mode: normal"><path d="M7.41115,272.46302c-11.96771,0 -21.66945,-9.70174 -21.66945,-21.66945v-245.58714c0,-11.96771 9.70174,-21.66945 21.66945,-21.66945h206.89436c11.96771,0 21.66945,9.70174 21.66945,21.66945v245.58714c0,11.96771 -9.70174,21.66945 -21.66945,21.66945z" id="shape"></path></g><g fill="none" fill-rule="evenodd" stroke="none" stroke-width="none" stroke-linecap="butt" stroke-linejoin="miter" stroke-miterlimit="10" stroke-dasharray="" stroke-dashoffset="0" font-family="none" font-weight="none" font-size="none" text-anchor="none" style="mix-blend-mode: normal"><g transform="translate(0.04552,0.16755) scale(0.72934,0.72934)"><g transform="translate(-11,-51)"><path d="M11.67857,189h19.78584v26.789h23.9037v-26.789h19.78584v75.25h-19.78584v-28.69533h-23.9037v28.69533h-19.78584zM97.85241,264.25v-75.25h46.80304v16.35433h-27.01721v12.24067h23.9037v16.65533h-23.9037v13.846h27.01721v16.15367zM166.34957,264.25v-75.25h19.78584v55.384h27.11764v19.866zM243.88594,189l30.73333,27.89267l30.63289,-27.89267h8.93878v75.25h-19.88627v-38.62833l-19.6854,17.95967l-19.78583,-17.85933v38.528h-19.88627v-75.25z" fill="#0f1689" stroke="none" stroke-width="1"></path><g transform="translate(11.95814,455) scale(1,-1)"><g fill="#0f1689" stroke="none" stroke-width="1"><path transform="translate(111.87009,-51.70656) rotate(35) scale(1,1)" d="M203.46068,95.68754c6.93631,0 12.5593,-14.80922 12.5593,-33.07732c0,-18.2681 -5.62299,-33.07732 -12.5593,-33.07732c-6.93631,0 -12.5593,14.80922 -12.5593,33.07732c0,18.2681 5.62299,33.07732 12.5593,33.07732z"></path><path transform="translate(58.08461,47.70477) rotate(145) scale(1,-1)" d="M30.14232,95.68754c6.93631,0 12.5593,-14.80922 12.5593,-33.07732c0,-18.2681 -5.62299,-33.07732 -12.5593,-33.07732c-6.93631,0 -12.5593,14.80922 -12.5593,33.07732c0,18.2681 5.62299,33.07732 12.5593,33.07732z"></path><path transform="translate(272.62852,53.67076) rotate(-180) scale(1,-1)" d="M116.73282,66.27527c6.93631,0 12.5593,-14.80922 12.5593,-33.07732c0,-18.2681 -5.62299,-33.07732 -12.5593,-33.07732c-6.93631,0 -12.5593,14.80922 -12.5593,33.07732c0,18.2681 5.62299,33.07732 12.5593,33.07732z"></path></g><path d="M251.46701,173.09985c-20.23008,-33.60997 -56.88956,-56.06791 -98.75578,-56.06791c-40.7208,0 -76.51588,21.2459 -97.0587,53.33459M57.85064,299.53606c20.8403,30.2327 55.5559,50.02659 94.86059,50.02659c39.3761,0 74.14642,-19.86589 94.97405,-50.19149" fill="none" stroke="#0f1689" stroke-width="20"></path></g><g transform="translate(11.95814,0)"><g fill="#0f1689" stroke="none" stroke-width="1"><path transform="translate(111.87009,-54.16602) rotate(35) scale(1,1)" d="M203.46068,95.68754c6.93631,0 12.5593,-14.80922 12.5593,-33.07732c0,-18.2681 -5.62299,-33.07732 -12.5593,-33.07732c-6.93631,0 -12.5593,14.80922 -12.5593,33.07732c0,18.2681 5.62299,33.07732 12.5593,33.07732z"></path><path transform="translate(58.08461,45.24531) rotate(145) scale(1,-1)" d="M30.14232,95.68754c6.93631,0 12.5593,-14.80922 12.5593,-33.07732c0,-18.2681 -5.62299,-33.07732 -12.5593,-33.07732c-6.93631,0 -12.5593,14.80922 -12.5593,33.07732c0,18.2681 5.62299,33.07732 12.5593,33.07732z"></path><path transform="translate(272.62852,51.2113) rotate(-180) scale(1,-1)" d="M116.73282,66.27527c6.93631,0 12.5593,-14.80922 12.5593,-33.07732c0,-18.2681 -5.62299,-33.07732 -12.5593,-33.07732c-6.93631,0 -12.5593,14.80922 -12.5593,33.07732c0,18.2681 5.62299,33.07732 12.5593,33.07732z"></path></g><path d="M251.46701,170.64039c-20.23008,-33.60997 -56.88956,-56.06791 -98.75578,-56.06791c-40.7208,0 -76.51588,21.2459 -97.0587,53.33459M57.85064,297.0766c20.8403,30.2327 55.5559,50.02659 94.86059,50.02659c39.3761,0 74.14642,-19.86589 94.97405,-50.19149" fill="none" stroke="#0f1689" stroke-width="20"></path></g></g></g></g></g></svg>